<svg width="24" height="24" viewBox="0 0 24 24" fill="none" xmlns="http://www.w3.org/2000/svg">
<path fill-rule="evenodd" clip-rule="evenodd" d="M3.00004 6C3.00004 5.44772 3.48358 5 4.08004 5H19.92C20.5165 5 21 5.44772 21 6C21 6.55228 20.5165 7 19.92 7H4.08004C3.48358 7 3.00004 6.55228 3.00004 6ZM3.00004 12C3.00004 11.4477 3.48358 11 4.08004 11H19.92C20.5165 11 21 11.4477 21 12C21 12.5523 20.5165 13 19.92 13H4.08004C3.48358 13 3.00004 12.5523 3.00004 12ZM4.08 17C3.48353 17 3 17.4477 3 18C3 18.5523 3.48353 19 4.08 19H19.92C20.5165 19 21 18.5523 21 18C21 17.4477 20.5165 17 19.92 17H4.08Z" fill="#FFFFFF"/>
</svg>
